HIERARCHY
ROOT hip
{
  OFFSET 46.851 82.134 -2.21286
  CHANNELS 6 Xposition Yposition Zposition Zrotation Xrotation Yrotation
  JOINT abdomen
  {
    OFFSET 0 20.6881 -0.73152
    CHANNELS 3 Zrotation Xrotation Yrotation
    JOINT chest
    {
      OFFSET 0 11.7043 -0.48768
      CHANNELS 3 Zrotation Xrotation Yrotation
      JOINT neck
      {
        OFFSET 0 22.1894 -2.19456
        CHANNELS 3 Zrotation Xrotation Yrotation
        JOINT head
        {
          OFFSET -0.24384 7.07133 1.2192
          CHANNELS 3 Zrotation Xrotation Yrotation
          JOINT leftEye
          {
            OFFSET 4.14528 8.04674 8.04672
            CHANNELS 3 Zrotation Xrotation Yrotation
            End Site
            {
              OFFSET 1 0 0
            }
          }
          JOINT rightEye
          {
            OFFSET -3.6576 8.04674 8.04672
            CHANNELS 3 Zrotation Xrotation Yrotation
            End Site
            {
              OFFSET 1 0 0
            }
          }
        }
      }
      JOINT rCollar
      {
        OFFSET -2.68224 19.2634 -4.8768
        CHANNELS 3 Zrotation Xrotation Yrotation
        JOINT rShldr
        {
          OFFSET -8.77824 -1.95073 1.46304
          CHANNELS 3 Zrotation Xrotation Yrotation
          JOINT rForeArm
          {
            OFFSET -28.1742 -1.7115 0.48768
            CHANNELS 3 Zrotation Xrotation Yrotation
            JOINT rHand
            {
              OFFSET -22.5879 0.773209 7.07136
              CHANNELS 3 Zrotation Xrotation Yrotation
              JOINT rThumb1
              {
                OFFSET -1.2192 -0.487915 3.41376
                CHANNELS 3 Zrotation Xrotation Yrotation
                JOINT rThumb2
                {
                  OFFSET -3.37035 -0.52449 3.41376
                  CHANNELS 3 Zrotation Xrotation Yrotation
                  End Site
                  {
                    OFFSET -1.78271 -1.18214 1.43049
                  }
                }
              }
              JOINT rIndex1
              {
                OFFSET -7.75947 0.938293 5.60832
                CHANNELS 3 Zrotation Xrotation Yrotation
                JOINT rIndex2
                {
                  OFFSET -2.54057 -0.884171 1.56538
                  CHANNELS 3 Zrotation Xrotation Yrotation
                  End Site
                  {
                    OFFSET -1.62519 -0.234802 1.16502
                  }
                }
              }
              JOINT rMid1
              {
                OFFSET -8.24714 1.18213 3.41376
                CHANNELS 3 Zrotation Xrotation Yrotation
                JOINT rMid2
                {
                  OFFSET -3.10165 -0.590103 1.0647
                  CHANNELS 3 Zrotation Xrotation Yrotation
                  End Site
                  {
                    OFFSET -2.48547 -0.328903 0.83742
                  }
                }
              }
              JOINT rRing1
              {
                OFFSET -8.82822 0.546677 1.51678
                CHANNELS 3 Zrotation Xrotation Yrotation
                JOINT rRing2
                {
                  OFFSET -2.60934 -0.819778 -0.0198488
                  CHANNELS 3 Zrotation Xrotation Yrotation
                  End Site
                  {
                    OFFSET -2.33842 -0.294052 0.168128
                  }
                }
              }
              JOINT rPinky1
              {
                OFFSET -8.27202 -0.0477905 -0.4584
                CHANNELS 3 Zrotation Xrotation Yrotation
                JOINT rPinky2
                {
                  OFFSET -1.82734 -0.647385 -0.700984
                  CHANNELS 3 Zrotation Xrotation Yrotation
                  End Site
                  {
                    OFFSET -1.69225 -0.51767 -0.607171
                  }
                }
              }
            }
          }
        }
      }
      JOINT lCollar
      {
        OFFSET 2.68224 19.2634 -4.8768
        CHANNELS 3 Zrotation Xrotation Yrotation
        JOINT lShldr
        {
          OFFSET 8.77824 -1.95073 1.46304
          CHANNELS 3 Zrotation Xrotation Yrotation
          JOINT lForeArm
          {
            OFFSET 28.1742 -1.7115 0.48768
            CHANNELS 3 Zrotation Xrotation Yrotation
            JOINT lHand
            {
              OFFSET 22.5879 0.773209 7.07136
              CHANNELS 3 Zrotation Xrotation Yrotation
              JOINT lThumb1
              {
                OFFSET 1.2192 -0.487915 3.41376
                CHANNELS 3 Zrotation Xrotation Yrotation
                JOINT lThumb2
                {
                  OFFSET 3.37035 -0.52449 3.41376
                  CHANNELS 3 Zrotation Xrotation Yrotation
                  End Site
                  {
                    OFFSET 1.78271 -1.18214 1.43049
                  }
                }
              }
              JOINT lIndex1
              {
                OFFSET 7.75947 0.938293 5.60832
                CHANNELS 3 Zrotation Xrotation Yrotation
                JOINT lIndex2
                {
                  OFFSET 2.54057 -0.884171 1.56538
                  CHANNELS 3 Zrotation Xrotation Yrotation
                  End Site
                  {
                    OFFSET 1.62519 -0.234802 1.16502
                  }
                }
              }
              JOINT lMid1
              {
                OFFSET 8.24714 1.18213 3.41376
                CHANNELS 3 Zrotation Xrotation Yrotation
                JOINT lMid2
                {
                  OFFSET 3.10165 -0.590103 1.0647
                  CHANNELS 3 Zrotation Xrotation Yrotation
                  End Site
                  {
                    OFFSET 2.48547 -0.328903 0.83742
                  }
                }
              }
              JOINT lRing1
              {
                OFFSET 8.82822 0.546677 1.51678
                CHANNELS 3 Zrotation Xrotation Yrotation
                JOINT lRing2
                {
                  OFFSET 2.60934 -0.819778 -0.0198488
                  CHANNELS 3 Zrotation Xrotation Yrotation
                  End Site
                  {
                    OFFSET 2.33842 -0.294052 0.168128
                  }
                }
              }
              JOINT lPinky1
              {
                OFFSET 8.27202 -0.0477905 -0.4584
                CHANNELS 3 Zrotation Xrotation Yrotation
                JOINT lPinky2
                {
                  OFFSET 1.82734 -0.647385 -0.700984
                  CHANNELS 3 Zrotation Xrotation Yrotation
                  End Site
                  {
                    OFFSET 1.69225 -0.51767 -0.607171
                  }
                }
              }
            }
          }
        }
      }
    }
  }
  JOINT rButtock
  {
    OFFSET -8.77824 4.35084 1.2192
    CHANNELS 3 Zrotation Xrotation Yrotation
    JOINT rThigh
    {
      OFFSET 0 -1.70687 -2.19456
      CHANNELS 3 Zrotation Xrotation Yrotation
      JOINT rShin
      {
        OFFSET 0 -36.8199 0.73152
        CHANNELS 3 Zrotation Xrotation Yrotation
        JOINT rFoot
        {
          OFFSET 0.73152 -45.1104 -5.12064
          CHANNELS 3 Zrotation Xrotation Yrotation
          End Site
          {
            OFFSET -1.1221 -3.69964 12.103
          }
        }
      }
    }
  }
  JOINT lButtock
  {
    OFFSET 8.77824 4.35084 1.2192
    CHANNELS 3 Zrotation Xrotation Yrotation
    JOINT lThigh
    {
      OFFSET 0 -1.70687 -2.19456
      CHANNELS 3 Zrotation Xrotation Yrotation
      JOINT lShin
      {
        OFFSET 0 -36.8199 0.73152
        CHANNELS 3 Zrotation Xrotation Yrotation
        JOINT lFoot
        {
          OFFSET -0.73152 -45.1104 -5.12064
          CHANNELS 3 Zrotation Xrotation Yrotation
          End Site
          {
            OFFSET 1.1221 -3.69964 12.103
          }
        }
      }
    }
  }
}
MOTION
Frames:	5
Frame Time:	0.00833333
-49.0378 82.1859 16.1365 -8.04542 1.86493 90.7728 -0.604107 5.03958 -0.292928 4.40775 -2.98743 0.0439995 -5.36298 -0.0511974 1.16423 -7.32886 20.1788 7.60797 -0 0 0 -0 0 0 -6.34938e-015 1.75078e-013 -1.88356e-014 72.857 11.0205 -0.808597 -15.1078 -7.88411 27.8106 -0.653865 22.3437 3.31142 -2.1246e-010 -2.68061e-010 4.6846e-010 -3.5704e-010 -4.5992e-010 8.12813e-010 -2.12459e-010 -2.68052e-010 4.68462e-010 7.73091 5.47488 0.417314 -2.12461e-010 -2.68054e-010 4.68463e-010 2.90554 0.965183 0.102902 -2.12451e-010 -2.68059e-010 4.68462e-010 10.2786 0.731801 0.0259123 -2.12465e-010 -2.68057e-010 4.68462e-010 2.22167 -0.733487 -0.20892 -6.27405e-015 1.75111e-013 -1.90728e-014 -77.4142 25.2954 -5.67463 17.6061 -10.2696 -33.1416 0.0814868 8.11907 -1.14883 -7.32702e-010 1.36048e-010 -5.58503e-010 -1.27191e-009 2.3907e-010 -9.60681e-010 -7.32703e-010 1.36054e-010 -5.58499e-010 -7.73091 5.47488 -0.417314 -7.32701e-010 1.36055e-010 -5.58508e-010 -2.90554 0.965183 -0.102902 -7.32703e-010 1.36054e-010 -5.58501e-010 -10.2786 0.731801 -0.0259123 -7.32696e-010 1.36053e-010 -5.58509e-010 -2.22167 -0.733487 0.20892 -2.03217e-016 0 -3.88251e-019 -7.70733 -32.5934 -22.4388 -0.218254 37.1068 1.17973 -12.9601 -18.8159 -27.1512 2.03217e-016 0 3.88251e-019 -2.55841 -17.7229 3.51837 0.0347467 29.7645 -0.777662 2.90927 -16.3594 6.75211 
-49.2341 82.1653 16.0779 -7.96821 1.7527 91.2412 -1.07586 5.28011 -0.0660846 4.46707 -3.0214 0.104845 -5.42869 0.0272955 1.0229 -6.92194 20.213 7.29143 -0 0 0 -0 0 0 -2.426e-015 -1.28147e-013 1.83876e-014 73.1471 10.8593 -0.505394 -15.0611 -7.84331 27.7145 -0.667007 22.5474 3.34512 -5.5821e-010 -7.96064e-010 1.26251e-009 -9.4115e-010 -1.37021e-009 2.19131e-009 -5.5821e-010 -7.96056e-010 1.26251e-009 7.73091 5.47488 0.417314 -5.5821e-010 -7.96057e-010 1.26251e-009 2.90554 0.965183 0.102902 -5.58201e-010 -7.96064e-010 1.26251e-009 10.2786 0.731801 0.0259123 -5.58214e-010 -7.96063e-010 1.26251e-009 2.22167 -0.733487 -0.20892 -2.34519e-015 -1.28111e-013 1.81888e-014 -77.0359 25.4429 -5.82292 17.7073 -10.3754 -33.3669 0.0757689 7.82897 -1.10726 -1.19855e-009 2.10906e-010 -1.02728e-009 -2.08145e-009 3.70993e-010 -1.76805e-009 -1.19855e-009 2.10912e-010 -1.02727e-009 -7.73091 5.47488 -0.417314 -1.19855e-009 2.10912e-010 -1.02729e-009 -2.90554 0.965183 -0.102902 -1.19855e-009 2.10912e-010 -1.02728e-009 -10.2786 0.731801 -0.0259123 -1.19855e-009 2.10911e-010 -1.02729e-009 -2.22167 -0.733487 0.20892 -2.03217e-016 0 -3.88251e-019 -8.02257 -32.7222 -22.7567 -0.221349 37.3635 1.19001 -13.1194 -18.8982 -27.3716 2.03217e-016 0 3.88251e-019 -2.33423 -18.054 4.03971 0.0418511 30.1021 -0.77871 2.52055 -16.4643 5.56263 
-49.4479 82.1144 15.9098 -7.96839 1.90173 91.6878 -1.72126 5.36173 0.0274577 4.66463 -2.92668 0.122674 -5.7111 0.122722 0.930195 -6.51071 20.1688 7.11839 -0 0 0 -0 0 0 2.44577e-014 -2.01951e-013 4.56172e-014 73.1821 11.1629 -0.106519 -15.0434 -7.82754 27.6787 -0.66288 22.4814 3.33425 -7.22362e-010 -1.11473e-009 1.83485e-009 -1.21557e-009 -1.91832e-009 3.18331e-009 -7.22361e-010 -1.11473e-009 1.83485e-009 7.73091 5.47488 0.417314 -7.22362e-010 -1.11473e-009 1.83485e-009 2.90554 0.965183 0.102902 -7.22353e-010 -1.11473e-009 1.83485e-009 10.2786 0.731801 0.0259123 -7.22367e-010 -1.11473e-009 1.83486e-009 2.22167 -0.733487 -0.20892 2.4482e-014 -2.0192e-013 4.54413e-014 -76.8777 25.3283 -5.92984 17.7833 -10.4551 -33.5372 0.0701756 7.53922 -1.06578 -1.37649e-009 3.24112e-010 -1.27408e-009 -2.3908e-009 5.672e-010 -2.19439e-009 -1.37649e-009 3.24116e-010 -1.27407e-009 -7.73091 5.47488 -0.417314 -1.37648e-009 3.24116e-010 -1.27408e-009 -2.90554 0.965183 -0.102902 -1.37649e-009 3.24116e-010 -1.27407e-009 -10.2786 0.731801 -0.0259123 -1.37648e-009 3.24116e-010 -1.27408e-009 -2.22167 -0.733487 0.20892 -2.03217e-016 0 -3.88251e-019 -8.75352 -32.9399 -23.348 -0.22746 37.7559 1.19902 -13.1267 -18.888 -27.3773 2.03217e-016 0 3.88251e-019 -2.55801 -18.3036 4.18249 0.0441978 30.2396 -0.778898 2.3035 -16.4485 4.9257 
-49.6776 82.0343 15.6224 -8.01659 2.27894 92.1941 -2.50982 5.34889 0.0332741 4.95612 -2.74586 0.111635 -6.14391 0.231905 0.870138 -6.08379 20.073 7.04051 -0 0 0 -0 0 0 6.53892e-014 -1.82399e-013 7.4333e-014 73.0556 11.7575 0.356893 -15.0499 -7.83291 27.6928 -0.647299 22.2342 3.29351 -8.18666e-010 -1.39335e-009 2.39573e-009 -1.37329e-009 -2.39664e-009 4.15425e-009 -8.18662e-010 -1.39335e-009 2.39573e-009 7.73091 5.47488 0.417314 -8.18665e-010 -1.39335e-009 2.39573e-009 2.90554 0.965183 0.102902 -8.18657e-010 -1.39335e-009 2.39573e-009 10.2786 0.731801 0.0259123 -8.18672e-010 -1.39335e-009 2.39573e-009 2.22167 -0.733487 -0.20892 6.53159e-014 -1.82379e-013 7.41746e-014 -76.8596 25.0223 -6.00707 17.8376 -10.5127 -33.6581 0.0646507 7.24194 -1.02328 -1.41433e-009 4.65568e-010 -1.4242e-009 -2.45686e-009 8.11211e-010 -2.455e-009 -1.41433e-009 4.6557e-010 -1.42419e-009 -7.73091 5.47488 -0.417314 -1.41433e-009 4.6557e-010 -1.4242e-009 -2.90554 0.965183 -0.102902 -1.41433e-009 4.65569e-010 -1.4242e-009 -10.2786 0.731801 -0.0259123 -1.41432e-009 4.65569e-010 -1.4242e-009 -2.22167 -0.733487 0.20892 -2.03217e-016 0 -3.88251e-019 -9.77799 -33.2058 -24.1008 -0.235651 38.2412 1.20768 -13.0424 -18.8314 -27.2455 2.03217e-016 0 3.88251e-019 -3.0825 -18.5014 4.13191 0.0437326 30.2584 -0.778292 2.18451 -16.347 4.60295 
-49.8668 81.9985 15.4217 -8.07341 2.71995 92.6989 -3.26236 5.30865 0.0438512 5.20052 -2.54659 0.10052 -6.56962 0.341049 0.814318 -5.67404 19.9994 6.97664 -0 0 0 -0 0 0 1.0227e-013 -1.18183e-013 9.52404e-014 72.9245 12.4375 0.804956 -15.0835 -7.8622 27.762 -0.627631 21.915 3.24119 -8.44219e-010 -1.54921e-009 2.74586e-009 -1.41237e-009 -2.66375e-009 4.75976e-009 -8.44211e-010 -1.54921e-009 2.74586e-009 7.73091 5.47488 0.417314 -8.44216e-010 -1.54921e-009 2.74586e-009 2.90554 0.965183 0.102902 -8.44209e-010 -1.54921e-009 2.74585e-009 10.2786 0.731801 0.0259123 -8.44225e-010 -1.54921e-009 2.74586e-009 2.22167 -0.733487 -0.20892 1.02099e-013 -1.18175e-013 9.50917e-014 -76.8489 24.6471 -6.06954 17.8742 -10.5518 -33.7388 0.059693 6.9604 -0.983097 -1.31284e-009 5.67694e-010 -1.44113e-009 -2.28088e-009 9.86571e-010 -2.48611e-009 -1.31284e-009 5.67692e-010 -1.44113e-009 -7.73091 5.47488 -0.417314 -1.31284e-009 5.67692e-010 -1.44113e-009 -2.90554 0.965183 -0.102902 -1.31285e-009 5.67692e-010 -1.44113e-009 -10.2786 0.731801 -0.0259123 -1.31283e-009 5.67693e-010 -1.44114e-009 -2.22167 -0.733487 0.20892 -2.03217e-016 0 -3.88251e-019 -10.8139 -33.4545 -24.8368 -0.243996 38.717 1.21543 -12.9367 -18.7357 -27.1048 2.03217e-016 0 3.88251e-019 -3.67762 -18.6681 3.96285 0.0424829 30.242 -0.777593 2.12108 -16.2175 4.45047 
